<svg width="24" height="24" viewBox="0 0 24 24" fill="none" xmlns="http://www.w3.org/2000/svg">
<path d="M8 2L9.88 3.88" stroke="white" stroke-width="2" stroke-linecap="round" stroke-linejoin="round"/>
<path d="M14.12 3.88L16 2" stroke="white" stroke-width="2" stroke-linecap="round" stroke-linejoin="round"/>
<path d="M8.99995 7.13036V6.13036C8.98182 5.72511 9.04599 5.32038 9.18858 4.94061C9.33116 4.56084 9.54922 4.21389 9.82958 3.92071C10.1099 3.62753 10.4468 3.39419 10.8198 3.23477C11.1928 3.07535 11.5943 2.99316 11.9999 2.99316C12.4056 2.99316 12.8071 3.07535 13.1801 3.23477C13.5531 3.39419 13.89 3.62753 14.1703 3.92071C14.4507 4.21389 14.6687 4.56084 14.8113 4.94061C14.9539 5.32038 15.0181 5.72511 14.9999 6.13036V7.13036" stroke="white" stroke-width="2" stroke-linecap="round" stroke-linejoin="round"/>
<path d="M12 20C8.7 20 6 17.3 6 14V11C6 9.93913 6.42143 8.92172 7.17157 8.17157C7.92172 7.42143 8.93913 7 10 7H14C15.0609 7 16.0783 7.42143 16.8284 8.17157C17.5786 8.92172 18 9.93913 18 11V14C18 17.3 15.3 20 12 20Z" stroke="white" stroke-width="2" stroke-linecap="round" stroke-linejoin="round"/>
<path d="M12 20V11" stroke="white" stroke-width="2" stroke-linecap="round" stroke-linejoin="round"/>
<path d="M6.53 9C4.6 8.8 3 7.1 3 5" stroke="white" stroke-width="2" stroke-linecap="round" stroke-linejoin="round"/>
<path d="M6 13H2" stroke="white" stroke-width="2" stroke-linecap="round" stroke-linejoin="round"/>
<path d="M3 21C3 18.9 4.7 17.1 6.8 17" stroke="white" stroke-width="2" stroke-linecap="round" stroke-linejoin="round"/>
<path d="M20.97 5C20.97 7.1 19.37 8.8 17.47 9" stroke="white" stroke-width="2" stroke-linecap="round" stroke-linejoin="round"/>
<path d="M22 13H18" stroke="white" stroke-width="2" stroke-linecap="round" stroke-linejoin="round"/>
<path d="M17.2 17C19.3 17.1 21 18.9 21 21" stroke="white" stroke-width="2" stroke-linecap="round" stroke-linejoin="round"/>
</svg>
