<svg width="19" height="14" viewBox="0 0 19 14" fill="none" xmlns="http://www.w3.org/2000/svg">
<path d="M13.9152 12.6667H6.83184C5.75006 12.6664 4.68967 12.3653 3.76915 11.7971C2.84864 11.2288 2.10427 10.4158 1.61923 9.44885C1.13419 8.4819 0.927584 7.39913 1.0225 6.32152C1.11741 5.24391 1.51011 4.21392 2.15671 3.34665C2.80331 2.47938 3.67834 1.809 4.68401 1.41041C5.68968 1.01182 6.78638 0.900729 7.85155 1.08955C8.91672 1.27838 9.9084 1.75968 10.7158 2.47967C11.5232 3.19966 12.1144 4.12998 12.4235 5.16667H13.9152C14.9097 5.16667 15.8636 5.56176 16.5668 6.26502C17.2701 6.96828 17.6652 7.92211 17.6652 8.91667C17.6652 9.91123 17.2701 10.8651 16.5668 11.5683C15.8636 12.2716 14.9097 12.6667 13.9152 12.6667Z" stroke="white" stroke-width="2" stroke-linecap="round" stroke-linejoin="round"/>
</svg>
