<svg width="25" height="25" viewBox="0 0 25 25" fill="none" xmlns="http://www.w3.org/2000/svg">
<g clip-path="url(#clip0_1187_337)">
<path d="M25 12.5766C25 5.62969 19.4031 -0.0015625 12.5 -0.0015625C5.59375 0 -0.003125 5.62969 -0.003125 12.5781C-0.003125 18.8547 4.56875 24.0578 10.5437 25.0016V16.2125H7.37187V12.5781H10.5469V9.80469C10.5469 6.65312 12.4141 4.9125 15.2688 4.9125C16.6375 4.9125 18.0672 5.15781 18.0672 5.15781V8.25156H16.4906C14.9391 8.25156 14.4547 9.22188 14.4547 10.2172V12.5766H17.9203L17.3672 16.2109H14.4531V25C20.4281 24.0562 25 18.8531 25 12.5766Z" fill="#0163E0"/>
</g>
<defs>
<clipPath id="clip0_1187_337">
<rect width="25" height="25" fill="white"/>
</clipPath>
</defs>
</svg>
