<svg width="56" height="57" viewBox="0 0 56 57" fill="none" xmlns="http://www.w3.org/2000/svg">
<path d="M35.6454 11.9914C36.1014 12.0434 36.5494 12.0914 36.9974 12.1554C41.1459 12.7625 44.9879 14.6916 47.9525 17.6563C50.9172 20.6209 52.8464 24.4629 53.4534 28.6114C53.3587 28.8311 53.3239 29.072 53.3527 29.3096C53.3816 29.5471 53.4729 29.7727 53.6174 29.9634C53.6409 30.9773 53.4586 31.9855 53.0814 32.927C52.7041 33.8684 52.1399 34.7236 51.4227 35.4407C50.7056 36.1579 49.8504 36.7221 48.909 37.0994C47.9675 37.4766 46.9593 37.6589 45.9454 37.6354C45.7257 37.5407 45.4848 37.5059 45.2473 37.5347C45.0097 37.5636 44.7841 37.6549 44.5934 37.7994C43.9864 41.9479 42.0572 45.7899 39.0925 48.7545C36.1279 51.7192 32.2859 53.6484 28.1374 54.2554C27.9177 54.1607 27.6768 54.1259 27.4393 54.1547C27.2017 54.1836 26.9761 54.2749 26.7854 54.4194C24.5594 55.4591 22.0117 55.5719 19.7025 54.733C17.3934 53.8942 15.5121 52.1724 14.4724 49.9464C13.4328 47.7204 13.32 45.1727 14.1588 42.8635C14.9977 40.5544 16.7194 38.6731 18.9454 37.6334C19.0402 37.4137 19.0749 37.1728 19.0461 36.9353C19.0173 36.6977 18.9259 36.4721 18.7814 36.2814C14.6329 35.6744 10.7909 33.7452 7.82628 30.7805C4.86161 27.8159 2.93245 23.9739 2.32541 19.8254C2.42016 19.6057 2.45489 19.3648 2.42608 19.1273C2.39727 18.8897 2.30594 18.6641 2.16141 18.4734C1.08012 15.2285 1.33217 11.6869 2.86209 8.62784C4.39201 5.56874 7.07449 3.2427 10.3194 2.16141C13.5643 1.08012 17.1059 1.33216 20.165 2.86209C23.2241 4.39201 25.5501 7.07449 26.6314 10.3194C26.8221 10.4639 27.0477 10.5553 27.2853 10.5841C27.5228 10.6129 27.7637 10.5782 27.9834 10.4834C30.613 10.4638 33.2194 10.9768 35.6454 11.9914Z" stroke="#16A34A" stroke-width="3" stroke-linecap="round" stroke-linejoin="round"/>
</svg>
