<svg width="32" height="26" viewBox="0 0 32 26" fill="none" xmlns="http://www.w3.org/2000/svg">
<g opacity="0.8">
<g clip-path="url(#clip0_156_127)">
<rect width="32" height="26" rx="13" fill="#89C129"/>
<path d="M10.3451 17.0683C9.92771 17.43 9.8826 18.0615 10.2443 18.4789C10.606 18.8963 11.2376 18.9414 11.6549 18.5797L11 17.824L10.3451 17.0683ZM23.3328 8.07126C23.3721 7.52038 22.9575 7.04191 22.4066 7.00256L13.4295 6.36133C12.8786 6.32199 12.4001 6.73667 12.3607 7.28755C12.3214 7.83843 12.7361 8.3169 13.287 8.35625L21.2666 8.92623L20.6967 16.9059C20.6573 17.4568 21.072 17.9353 21.6229 17.9746C22.1737 18.014 22.6522 17.5993 22.6916 17.0484L23.3328 8.07126ZM11 17.824L11.6549 18.5797L22.9903 8.75571L22.3353 8.00002L21.6804 7.24433L10.3451 17.0683L11 17.824Z" fill="#21561F"/>
<path d="M-6.65493 32.0683C-7.07229 32.43 -7.1174 33.0615 -6.75569 33.4789C-6.39398 33.8963 -5.76243 33.9414 -5.34507 33.5797L-6 32.824L-6.65493 32.0683ZM6.33279 23.0713C6.37214 22.5204 5.95746 22.0419 5.40658 22.0026L-3.57055 21.3613C-4.12143 21.322 -4.5999 21.7367 -4.63925 22.2875C-4.6786 22.8384 -4.26392 23.3169 -3.71304 23.3563L4.26663 23.9262L3.69665 31.9059C3.65731 32.4568 4.07198 32.9353 4.62287 32.9746C5.17375 33.014 5.65222 32.5993 5.69157 32.0484L6.33279 23.0713ZM-6 32.824L-5.34507 33.5797L5.99027 23.7557L5.33534 23L4.68041 22.2443L-6.65493 32.0683L-6 32.824Z" fill="#21561F"/>
</g>
<rect x="0.5" y="0.5" width="31" height="25" rx="12.5" stroke="#89C129"/>
</g>
<defs>
<clipPath id="clip0_156_127">
<rect width="32" height="26" rx="13" fill="white"/>
</clipPath>
</defs>
</svg>
