<svg width="24" height="18" viewBox="0 0 24 18" fill="none" xmlns="http://www.w3.org/2000/svg">
<path d="M11.4069 5.74968C11.4762 5.81914 11.5585 5.87426 11.6491 5.91186C11.7398 5.94947 11.8369 5.96882 11.935 5.96882C12.0331 5.96882 12.1303 5.94947 12.2209 5.91186C12.3115 5.87426 12.3939 5.81914 12.4632 5.74968L14.701 3.51187C14.7703 3.44251 14.8253 3.36018 14.8629 3.26956C14.9004 3.17895 14.9197 3.08183 14.9197 2.98375C14.9197 2.88566 14.9004 2.78854 14.8629 2.69793C14.8253 2.60731 14.7703 2.52498 14.701 2.45562C14.6316 2.38627 14.5493 2.33125 14.4587 2.29372C14.368 2.25619 14.2709 2.23687 14.1728 2.23687C14.0748 2.23687 13.9776 2.25619 13.887 2.29372C13.7964 2.33125 13.7141 2.38627 13.6447 2.45562L12.681 3.42086V0.745936C12.681 0.548102 12.6024 0.35837 12.4625 0.21848C12.3226 0.0785895 12.1329 0 11.935 0C11.7372 0 11.5475 0.0785895 11.4076 0.21848C11.2677 0.35837 11.1891 0.548102 11.1891 0.745936V3.42086L10.2253 2.45562C10.156 2.38627 10.0736 2.33125 9.98303 2.29372C9.89242 2.25619 9.79529 2.23687 9.69721 2.23687C9.59913 2.23687 9.50201 2.25619 9.41139 2.29372C9.32078 2.33125 9.23844 2.38627 9.16909 2.45562C9.09974 2.52498 9.04472 2.60731 9.00719 2.69793C8.96965 2.78854 8.95033 2.88566 8.95033 2.98375C8.95033 3.08183 8.96965 3.17895 9.00719 3.26956C9.04472 3.36018 9.09974 3.44251 9.16909 3.51187L11.4069 5.74968ZM3.49549 4.98882C3.63537 4.84898 3.82507 4.77042 4.02287 4.77042C4.22066 4.77042 4.41036 4.84898 4.55024 4.98882L6.65976 7.09684C6.79563 7.23752 6.87082 7.42595 6.86912 7.62153C6.86742 7.81711 6.78897 8.0042 6.65067 8.14251C6.51237 8.28081 6.32528 8.35926 6.12969 8.36096C5.93411 8.36266 5.74569 8.28747 5.605 8.15159L3.49549 6.04208C3.35565 5.9022 3.27709 5.7125 3.27709 5.51471C3.27709 5.31691 3.35565 5.12721 3.49549 4.98733V4.98882ZM20.3746 4.98882C20.5139 5.12864 20.5922 5.31802 20.5922 5.51545C20.5922 5.71288 20.5139 5.90226 20.3746 6.04208L18.2651 8.15159C18.1962 8.22284 18.1139 8.27966 18.0229 8.31876C17.9319 8.35785 17.834 8.37843 17.735 8.37929C17.6359 8.38015 17.5377 8.36128 17.446 8.32377C17.3544 8.28626 17.2711 8.23088 17.201 8.16084C17.131 8.0908 17.0756 8.00751 17.0381 7.91584C17.0006 7.82417 16.9817 7.72594 16.9826 7.6269C16.9835 7.52785 17.004 7.42997 17.0431 7.33897C17.0822 7.24796 17.1391 7.16565 17.2103 7.09684L19.3198 4.98733C19.4597 4.84749 19.6494 4.76893 19.8472 4.76893C20.045 4.76893 20.2347 4.84749 20.3746 4.98733V4.98882ZM11.935 8.95124C12.7208 8.95099 13.4927 9.15762 14.1733 9.55034C14.8539 9.94306 15.4191 10.508 15.8121 11.1884C16.205 11.8689 16.412 12.6408 16.412 13.4265C16.4121 14.2123 16.2053 14.9842 15.8124 15.6647H8.05615C7.66321 14.9841 7.4564 14.212 7.45653 13.4261C7.45666 12.6403 7.66371 11.8683 8.05687 11.1878C8.45003 10.5073 9.01543 9.94239 9.69621 9.54978C10.377 9.15717 11.1491 8.95073 11.935 8.95124ZM17.4699 15.6647C17.8357 14.7589 17.9735 13.7771 17.8712 12.8056C17.769 11.8341 17.4298 10.9026 16.8835 10.0928C16.3372 9.28295 15.6004 8.61965 14.7379 8.16107C13.8753 7.7025 12.9134 7.46269 11.9365 7.46269C10.9597 7.46269 9.99772 7.7025 9.13518 8.16107C8.27264 8.61965 7.53586 9.28295 6.98953 10.0928C6.4432 10.9026 6.10403 11.8341 6.00179 12.8056C5.89955 13.7771 6.03737 14.7589 6.40315 15.6647H0.744473C0.546638 15.6647 0.356906 15.7433 0.217015 15.8831C0.0771248 16.023 -0.00146484 16.2128 -0.00146484 16.4106C-0.00146484 16.6084 0.0771248 16.7982 0.217015 16.9381C0.356906 17.0779 0.546638 17.1565 0.744473 17.1565H23.1226C23.3204 17.1565 23.5102 17.0779 23.6501 16.9381C23.7899 16.7982 23.8685 16.6084 23.8685 16.4106C23.8685 16.2128 23.7899 16.023 23.6501 15.8831C23.5102 15.7433 23.3204 15.6647 23.1226 15.6647H17.4684H17.4699ZM2.70312e-05 13.4269C2.70312e-05 13.229 0.0786167 13.0393 0.218507 12.8994C0.358397 12.7595 0.548129 12.6809 0.745964 12.6809H3.72971C3.92755 12.6809 4.11728 12.7595 4.25717 12.8994C4.39706 13.0393 4.47565 13.229 4.47565 13.4269C4.47565 13.6247 4.39706 13.8144 4.25717 13.9543C4.11728 14.0942 3.92755 14.1728 3.72971 14.1728H0.745964C0.548129 14.1728 0.358397 14.0942 0.218507 13.9543C0.0786167 13.8144 2.70312e-05 13.6247 2.70312e-05 13.4269ZM19.3944 13.4269C19.3944 13.229 19.473 13.0393 19.6129 12.8994C19.7528 12.7595 19.9425 12.6809 20.1403 12.6809H23.1241C23.3219 12.6809 23.5117 12.7595 23.6515 12.8994C23.7914 13.0393 23.87 13.229 23.87 13.4269C23.87 13.6247 23.7914 13.8144 23.6515 13.9543C23.5117 14.0942 23.3219 14.1728 23.1241 14.1728H20.1403C19.9425 14.1728 19.7528 14.0942 19.6129 13.9543C19.473 13.8144 19.3944 13.6247 19.3944 13.4269Z" fill="white"/>
</svg>
