<svg width="24" height="18" viewBox="0 0 24 18" fill="none" xmlns="http://www.w3.org/2000/svg">
<path d="M11.4069 0.219147C11.4762 0.149681 11.5585 0.0945665 11.6491 0.0569616C11.7398 0.0193568 11.8369 0 11.935 0C12.0331 0 12.1303 0.0193568 12.2209 0.0569616C12.3115 0.0945665 12.3939 0.149681 12.4632 0.219147L14.701 2.45696C14.7703 2.52631 14.8253 2.60865 14.8629 2.69926C14.9004 2.78988 14.9197 2.887 14.9197 2.98508C14.9197 3.08316 14.9004 3.18029 14.8629 3.2709C14.8253 3.36152 14.7703 3.44385 14.701 3.51321C14.6316 3.58256 14.5493 3.63758 14.4587 3.67511C14.368 3.71264 14.2709 3.73196 14.1728 3.73196C14.0748 3.73196 13.9776 3.71264 13.887 3.67511C13.7964 3.63758 13.7141 3.58256 13.6447 3.51321L12.681 2.54796V5.2229C12.681 5.42073 12.6024 5.61046 12.4625 5.75035C12.3226 5.89024 12.1329 5.96883 11.935 5.96883C11.7372 5.96883 11.5475 5.89024 11.4076 5.75035C11.2677 5.61046 11.1891 5.42073 11.1891 5.2229V2.54796L10.2253 3.51321C10.156 3.58256 10.0736 3.63758 9.98303 3.67511C9.89242 3.71264 9.79529 3.73196 9.69721 3.73196C9.59913 3.73196 9.50201 3.71264 9.41139 3.67511C9.32078 3.63758 9.23844 3.58256 9.16909 3.51321C9.09974 3.44385 9.04472 3.36152 9.00719 3.2709C8.96965 3.18029 8.95033 3.08316 8.95033 2.98508C8.95033 2.887 8.96965 2.78988 9.00719 2.69926C9.04472 2.60865 9.09974 2.52631 9.16909 2.45696L11.4069 0.219147ZM3.49549 4.98867C3.63537 4.84883 3.82507 4.77027 4.02287 4.77027C4.22066 4.77027 4.41036 4.84883 4.55024 4.98867L6.65976 7.09818C6.79563 7.23887 6.87082 7.42729 6.86912 7.62287C6.86742 7.81846 6.78897 8.00555 6.65067 8.14385C6.51237 8.28215 6.32528 8.3606 6.12969 8.3623C5.93411 8.364 5.74569 8.28882 5.605 8.15294L3.49549 6.04343C3.35565 5.90354 3.27709 5.71384 3.27709 5.51605C3.27709 5.31825 3.35565 5.12855 3.49549 4.98867ZM20.3746 4.98867C20.5144 5.12855 20.593 5.31825 20.593 5.51605C20.593 5.71384 20.5144 5.90354 20.3746 6.04343L18.2651 8.15294C18.1962 8.22418 18.1139 8.28101 18.0229 8.3201C17.9319 8.3592 17.834 8.37977 17.735 8.38063C17.6359 8.38149 17.5377 8.36262 17.446 8.32512C17.3544 8.28761 17.2711 8.23222 17.201 8.16218C17.131 8.09214 17.0756 8.00886 17.0381 7.91719C17.0006 7.82551 16.9817 7.72729 16.9826 7.62824C16.9835 7.5292 17.004 7.43132 17.0431 7.34031C17.0822 7.2493 17.1391 7.16699 17.2103 7.09818L19.3198 4.98867C19.4597 4.84883 19.6494 4.77027 19.8472 4.77027C20.045 4.77027 20.2347 4.84883 20.3746 4.98867ZM11.935 8.95258C12.7208 8.95234 13.4927 9.15897 14.1733 9.55168C14.8539 9.9444 15.4191 10.5094 15.8121 11.1898C16.205 11.8702 16.412 12.6421 16.412 13.4279C16.4121 14.2136 16.2053 14.9855 15.8124 15.666H8.05615C7.66321 14.9854 7.4564 14.2134 7.45653 13.4275C7.45666 12.6416 7.66371 11.8696 8.05687 11.1891C8.45003 10.5087 9.01543 9.94374 9.69621 9.55112C10.377 9.15851 11.1491 8.95208 11.935 8.95258ZM17.4699 15.666C17.8357 14.7602 17.9735 13.7785 17.8712 12.807C17.769 11.8355 17.4298 10.9039 16.8835 10.0941C16.3372 9.2843 15.6004 8.62099 14.7379 8.16242C13.8753 7.70385 12.9134 7.46403 11.9365 7.46403C10.9597 7.46403 9.99772 7.70385 9.13518 8.16242C8.27264 8.62099 7.53586 9.2843 6.98953 10.0941C6.4432 10.9039 6.10403 11.8355 6.00179 12.807C5.89955 13.7785 6.03737 14.7602 6.40315 15.666H0.744473C0.546638 15.666 0.356906 15.7446 0.217015 15.8845C0.0771248 16.0244 -0.00146484 16.2141 -0.00146484 16.412C-0.00146484 16.6098 0.0771248 16.7995 0.217015 16.9394C0.356906 17.0793 0.546638 17.1579 0.744473 17.1579H23.1226C23.3204 17.1579 23.5102 17.0793 23.6501 16.9394C23.7899 16.7995 23.8685 16.6098 23.8685 16.412C23.8685 16.2141 23.7899 16.0244 23.6501 15.8845C23.5102 15.7446 23.3204 15.666 23.1226 15.666H17.4684H17.4699ZM2.70312e-05 13.4282C2.70312e-05 13.2304 0.0786167 13.0406 0.218507 12.9007C0.358397 12.7609 0.548129 12.6823 0.745964 12.6823H3.72971C3.92755 12.6823 4.11728 12.7609 4.25717 12.9007C4.39706 13.0406 4.47565 13.2304 4.47565 13.4282C4.47565 13.626 4.39706 13.8158 4.25717 13.9557C4.11728 14.0956 3.92755 14.1741 3.72971 14.1741H0.745964C0.548129 14.1741 0.358397 14.0956 0.218507 13.9557C0.0786167 13.8158 2.70312e-05 13.626 2.70312e-05 13.4282ZM19.3944 13.4282C19.3944 13.2304 19.473 13.0406 19.6129 12.9007C19.7528 12.7609 19.9425 12.6823 20.1403 12.6823H23.1241C23.3219 12.6823 23.5117 12.7609 23.6515 12.9007C23.7914 13.0406 23.87 13.2304 23.87 13.4282C23.87 13.626 23.7914 13.8158 23.6515 13.9557C23.5117 14.0956 23.3219 14.1741 23.1241 14.1741H20.1403C19.9425 14.1741 19.7528 14.0956 19.6129 13.9557C19.473 13.8158 19.3944 13.626 19.3944 13.4282Z" fill="white"/>
</svg>
