<svg width="39" height="36" viewBox="0 0 39 36" fill="none" xmlns="http://www.w3.org/2000/svg">
<path d="M1.5 30C12.1712 29.9913 22.796 31.4044 33.094 34.202C34.548 34.598 36 33.518 36 32.01V30M4.5 1.5V3C4.5 3.39782 4.34196 3.77936 4.06066 4.06066C3.77936 4.34196 3.39782 4.5 3 4.5H1.5M4.5 1.5H34.5M4.5 1.5C3.70435 1.5 2.94129 1.81607 2.37868 2.37868C1.81607 2.94129 1.5 3.70435 1.5 4.5M1.5 4.5V3.75C1.5 2.508 2.508 1.5 3.75 1.5H37.5M1.5 4.5V22.5H4.5M1.5 4.5H34.5M37.5 1.5V3C37.5 3.828 36.828 4.5 36 4.5H34.5M37.5 1.5C37.5 2.29565 37.1839 3.05871 36.6213 3.62132C36.0587 4.18393 35.2956 4.5 34.5 4.5M37.5 1.5V4.5M34.5 1.5H35.25C36.492 1.5 37.5 2.508 37.5 3.75V4.5M34.5 1.5C35.2956 1.5 36.0587 1.81607 36.6213 2.37868C37.1839 2.94129 37.5 3.70435 37.5 4.5M37.5 4.5H4.5" stroke="#9333EA" stroke-width="3" stroke-linecap="round" stroke-linejoin="round"/>
</svg>
