<svg width="52" height="52" viewBox="0 0 52 52" fill="none" xmlns="http://www.w3.org/2000/svg">
<path d="M47.6085 42.6565C44.8236 37.7687 40.4749 33.9602 35.2625 31.8441C37.8546 29.9001 39.7693 27.1898 40.7353 24.0971C41.7014 21.0044 41.6699 17.6862 40.6453 14.6124C39.6207 11.5386 37.655 8.86509 35.0265 6.97059C32.398 5.07609 29.2401 4.05664 26 4.05664C22.76 4.05664 19.602 5.07609 16.9735 6.97059C14.3451 8.86509 12.3793 11.5386 11.3547 14.6124C10.3301 17.6862 10.2986 21.0044 11.2647 24.0971C12.2308 27.1898 14.1455 29.9001 16.7375 31.8441C11.5252 33.9602 7.1765 37.7687 4.39156 42.6565C4.219 42.934 4.10398 43.2433 4.05336 43.5661C4.00273 43.8889 4.01753 44.2186 4.09687 44.5356C4.17621 44.8526 4.31847 45.1504 4.5152 45.4113C4.71193 45.6722 4.9591 45.8909 5.24203 46.0543C5.52497 46.2178 5.83788 46.3227 6.16216 46.3628C6.48645 46.4029 6.81549 46.3774 7.12973 46.2879C7.44396 46.1983 7.73698 46.0464 7.99136 45.8413C8.24573 45.6362 8.45628 45.3821 8.61047 45.094C12.2911 38.7321 18.7911 34.9377 26 34.9377C33.2089 34.9377 39.7089 38.7341 43.3896 45.094C43.7237 45.6313 44.2538 46.0176 44.8676 46.1713C45.4814 46.3249 46.1309 46.2338 46.6788 45.9173C47.2267 45.6007 47.6301 45.0835 47.8035 44.475C47.977 43.8665 47.9071 43.2144 47.6085 42.6565ZM15.4375 19.5002C15.4375 17.4112 16.057 15.369 17.2176 13.632C18.3782 11.895 20.0279 10.5412 21.9579 9.74176C23.888 8.94231 26.0117 8.73313 28.0607 9.14069C30.1096 9.54825 31.9917 10.5542 33.4688 12.0314C34.946 13.5086 35.952 15.3907 36.3596 17.4396C36.7671 19.4885 36.558 21.6123 35.7585 23.5423C34.9591 25.4724 33.6052 27.122 31.8682 28.2826C30.1312 29.4433 28.0891 30.0627 26 30.0627C23.1997 30.0595 20.5149 28.9456 18.5348 26.9655C16.5546 24.9853 15.4407 22.3006 15.4375 19.5002Z" fill="white"/>
</svg>
