<svg width="22" height="24" viewBox="0 0 22 24" fill="none" xmlns="http://www.w3.org/2000/svg">
<path d="M3.63866 0.377672C3.1004 0.0292276 2.44323 -0.0844279 1.81921 0.063L12.6441 10.888L16.1526 7.37958L3.63866 0.377672ZM0.475632 0.942937C0.17371 1.34433 -5.56707e-05 1.83717 -5.56707e-05 2.35852V21.6409C-5.56707e-05 22.1623 0.173757 22.6551 0.475632 23.0565L11.5324 11.9998L0.475632 0.942937ZM20.7313 9.94158L17.5783 8.17734L13.7559 11.9997L17.5784 15.8223L20.7319 14.0579C21.4874 13.6346 21.9383 12.8653 21.9383 11.9997C21.9383 11.1341 21.4874 10.3649 20.7313 9.94158ZM12.6441 13.1115L1.81982 23.9357C1.99729 23.9775 2.1779 24 2.35851 24C2.81277 23.9999 3.25732 23.8686 3.63866 23.6217L16.1526 16.6199L12.6441 13.1115Z" fill="white"/>
</svg>
