<svg width="48" height="42" viewBox="0 0 48 42" fill="none" xmlns="http://www.w3.org/2000/svg">
<path d="M11 33L28.5 15.5L11 33ZM12.8375 21.1625L14.75 19.25L16.6625 21.1625C17.4793 21.9825 17.9378 23.0927 17.9378 24.25C17.9378 25.4073 17.4793 26.5175 16.6625 27.3375L14.75 29.25L12.8375 27.3375C12.0207 26.5175 11.5622 25.4073 11.5622 24.25C11.5622 23.0927 12.0207 21.9825 12.8375 21.1625ZM17.8375 16.1625L19.75 14.25L21.6625 16.1625C22.4793 16.9825 22.9378 18.0927 22.9378 19.25C22.9378 20.4073 22.4793 21.5175 21.6625 22.3375L19.75 24.25L17.8375 22.3375C17.0207 21.5175 16.5622 20.4073 16.5622 19.25C16.5622 18.0927 17.0207 16.9825 17.8375 16.1625ZM22.8375 11.1625L24.75 9.25L26.6625 11.1625C27.4793 11.9825 27.9378 13.0927 27.9378 14.25C27.9378 15.4073 27.4793 16.5175 26.6625 17.3375L24.75 19.25L22.8375 17.3375C22.0208 16.5175 21.5622 15.4073 21.5622 14.25C21.5622 13.0927 22.0208 11.9825 22.8375 11.1625ZM33.5 8H36V10.5C36 11.8261 35.4732 13.0979 34.5355 14.0355C33.5979 14.9732 32.3261 15.5 31 15.5H28.5V13C28.5 11.6739 29.0268 10.4021 29.9645 9.46447C30.9022 8.52678 32.1739 8 33.5 8Z" fill="white"/>
<path d="M11 33L28.5 15.5M28.5 15.5H31C32.3261 15.5 33.5979 14.9732 34.5355 14.0355C35.4732 13.0979 36 11.8261 36 10.5V8H33.5C32.1739 8 30.9022 8.52678 29.9645 9.46447C29.0268 10.4021 28.5 11.6739 28.5 13V15.5ZM12.8375 21.1625L14.75 19.25L16.6625 21.1625C17.4793 21.9825 17.9378 23.0927 17.9378 24.25C17.9378 25.4073 17.4793 26.5175 16.6625 27.3375L14.75 29.25L12.8375 27.3375C12.0207 26.5175 11.5622 25.4073 11.5622 24.25C11.5622 23.0927 12.0207 21.9825 12.8375 21.1625ZM17.8375 16.1625L19.75 14.25L21.6625 16.1625C22.4793 16.9825 22.9378 18.0927 22.9378 19.25C22.9378 20.4073 22.4793 21.5175 21.6625 22.3375L19.75 24.25L17.8375 22.3375C17.0207 21.5175 16.5622 20.4073 16.5622 19.25C16.5622 18.0927 17.0207 16.9825 17.8375 16.1625ZM22.8375 11.1625L24.75 9.25L26.6625 11.1625C27.4793 11.9825 27.9378 13.0927 27.9378 14.25C27.9378 15.4073 27.4793 16.5175 26.6625 17.3375L24.75 19.25L22.8375 17.3375C22.0208 16.5175 21.5622 15.4073 21.5622 14.25C21.5622 13.0927 22.0208 11.9825 22.8375 11.1625Z" stroke="black" stroke-width="2" stroke-linecap="round" stroke-linejoin="round"/>
<path d="M22.8375 27.3376L24.75 29.2501L22.8375 31.1626C22.0175 31.9793 20.9073 32.4379 19.75 32.4379C18.5927 32.4379 17.4825 31.9793 16.6625 31.1626L14.75 29.2501L16.6625 27.3376C17.4825 26.5208 18.5927 26.0623 19.75 26.0623C20.9073 26.0623 22.0175 26.5208 22.8375 27.3376ZM27.8375 22.3376L29.75 24.2501L27.8375 26.1626C27.0175 26.9793 25.9073 27.4379 24.75 27.4379C23.5927 27.4379 22.4825 26.9793 21.6625 26.1626L19.75 24.2501L21.6625 22.3376C22.4825 21.5208 23.5927 21.0623 24.75 21.0623C25.9073 21.0623 27.0175 21.5208 27.8375 22.3376ZM32.8375 17.3376L34.75 19.2501L32.8375 21.1626C32.0175 21.9793 30.9073 22.4379 29.75 22.4379C28.5927 22.4379 27.4825 21.9793 26.6625 21.1626L24.75 19.2501L26.6625 17.3376C27.4825 16.5208 28.5927 16.0623 29.75 16.0623C30.9073 16.0623 32.0175 16.5208 32.8375 17.3376Z" fill="white" stroke="black" stroke-width="2" stroke-linecap="round" stroke-linejoin="round"/>
<path d="M24.5 0.5C37.2569 0.5 47.5 9.72956 47.5 21C47.5 32.2704 37.2569 41.5 24.5 41.5C11.7431 41.5 1.5 32.2704 1.5 21C1.5 9.72956 11.7431 0.5 24.5 0.5Z" fill="#D9D9D9" fill-opacity="0.01" stroke="#F5F5F5"/>
</svg>
